<?xml version="1.0" standalone="no"?><!DOCTYPE svg PUBLIC "-//W3C//DTD SVG 1.1//EN" "http://www.w3.org/Graphics/SVG/1.1/DTD/svg11.dtd"><svg t="1577168797649" class="icon" viewBox="0 0 1024 1024" version="1.1" xmlns="http://www.w3.org/2000/svg" p-id="2361" xmlns:xlink="http://www.w3.org/1999/xlink" width="32" height="32"><defs><style type="text/css"></style></defs><path d="M192 448m64 0l512 0q64 0 64 64l0 0q0 64-64 64l-512 0q-64 0-64-64l0 0q0-64 64-64Z" p-id="2362" fill="currentColor"></path><path d="M320 64m64 0l256 0q64 0 64 64l0 128q0 64-64 64l-256 0q-64 0-64-64l0-128q0-64 64-64Z" p-id="2363" fill="currentColor"></path><path d="M64 704m64 0l256 0q64 0 64 64l0 128q0 64-64 64l-256 0q-64 0-64-64l0-128q0-64 64-64Z" p-id="2364" fill="currentColor"></path><path d="M576 704m64 0l256 0q64 0 64 64l0 128q0 64-64 64l-256 0q-64 0-64-64l0-128q0-64 64-64Z" p-id="2365" fill="currentColor"></path><path d="M704 512h128v192h-128zM192 512h128v192H192zM448 320h128v128H448z" p-id="2366" fill="currentColor"></path></svg>
